<svg width="34" height="35" viewBox="0 0 34 35" fill="none" xmlns="http://www.w3.org/2000/svg">
<circle cx="17" cy="17.1113" r="16.5" fill="white" stroke="#0062FF"/>
<g clip-path="url(#clip0_472_5167)">
<path d="M15.1092 19.8546H9.60937C8.85312 19.8546 8.23438 20.4738 8.23438 21.2306V26.7354C8.23438 27.4924 8.85312 28.1116 9.60937 28.1116H15.1092C15.8655 28.1116 16.4842 27.4924 16.4842 26.7354V21.2306C16.4842 20.4738 15.8655 19.8546 15.1092 19.8546ZM15.7967 26.7354C15.7966 26.9178 15.7242 27.0927 15.5953 27.2217C15.4664 27.3507 15.2916 27.4233 15.1092 27.4236H9.60937C9.23039 27.4236 8.92187 27.1149 8.92187 26.7354V21.2306C8.92201 21.0483 8.99447 20.8734 9.12336 20.7444C9.25225 20.6155 9.42703 20.5429 9.60937 20.5426H15.1092C15.4882 20.5426 15.7967 20.8513 15.7967 21.2306V26.7354ZM26.6241 19.1664H19.5776C18.8214 19.1664 18.2026 19.7857 18.2026 20.5426V23.6391C18.2026 24.3959 18.8214 25.0151 19.5776 25.0151H26.6241C27.3804 25.0151 27.9991 24.3959 27.9991 23.6391V20.5426C27.9991 19.7857 27.3804 19.1664 26.6241 19.1664ZM27.3116 23.6391C27.3115 23.8214 27.239 23.9963 27.1102 24.1253C26.9813 24.2542 26.8065 24.3268 26.6241 24.3271H19.5776C19.1986 24.3271 18.8901 24.0184 18.8901 23.6391V20.5426C18.8902 20.3603 18.9627 20.1854 19.0916 20.0564C19.2205 19.9274 19.3953 19.8549 19.5776 19.8546H26.6241C27.0033 19.8546 27.3116 20.1631 27.3116 20.5426V23.6391ZM22.8431 10.3932H24.9056V12.4574C24.9084 12.5467 24.9458 12.6314 25.01 12.6936C25.0742 12.7557 25.16 12.7905 25.2493 12.7905C25.3386 12.7905 25.4245 12.7557 25.4886 12.6936C25.5528 12.6314 25.5902 12.5467 25.5931 12.4574V10.3932H27.6554C27.7466 10.3932 27.8341 10.357 27.8986 10.2924C27.9632 10.2279 27.9994 10.1404 27.9994 10.0492C27.9994 9.95796 27.9632 9.87046 27.8986 9.80595C27.8341 9.74143 27.7466 9.70519 27.6554 9.70519H25.5929V7.64097C25.5929 7.54978 25.5568 7.46231 25.4923 7.39779C25.4279 7.33326 25.3405 7.29697 25.2493 7.29688C25.2042 7.29687 25.1594 7.30577 25.1177 7.32306C25.076 7.34034 25.0381 7.36568 25.0062 7.39762C24.9743 7.42956 24.9489 7.46747 24.9317 7.5092C24.9144 7.55092 24.9055 7.59564 24.9056 7.6408V9.70502H22.8431C22.7518 9.70502 22.6643 9.74127 22.5998 9.8058C22.5352 9.87033 22.499 9.95785 22.499 10.0491C22.499 10.1404 22.5352 10.2279 22.5998 10.2924C22.6643 10.357 22.7518 10.3932 22.8431 10.3932ZM21.4682 13.2315C21.4682 10.524 19.2753 8.32898 16.5701 8.32898C15.5235 8.3275 14.5041 8.66312 13.663 9.28616L14.001 9.8958C14.7359 9.32553 15.6399 9.01632 16.5701 9.017C18.8918 9.017 20.7807 10.9076 20.7807 13.2315C20.7807 15.5555 18.8918 17.4461 16.5701 17.4461C15.1051 17.4461 13.8133 16.6933 13.0587 15.5539H12.2554C13.0825 17.0901 14.7043 18.1343 16.57 18.1343C19.2753 18.1343 21.4682 15.9394 21.4682 13.2315Z" fill="#0062FF"/>
<path d="M15.3024 13.6621L11.3942 6.6077C11.2108 6.27684 10.9691 6.11133 10.7273 6.11133C10.4856 6.11133 10.2438 6.27684 10.0604 6.6077L6.15233 13.6621C5.78555 14.3239 6.1042 14.8656 6.86045 14.8656H14.5945C15.3507 14.8656 15.669 14.3239 15.3024 13.6621ZM6.69064 14.1551C6.69631 14.1241 6.71178 14.071 6.75355 13.9956L10.6618 6.94148C10.6857 6.89834 10.7082 6.86586 10.7273 6.8418C10.7465 6.86586 10.7691 6.89834 10.793 6.94148L14.7014 13.9958C14.7432 14.0714 14.7586 14.1241 14.7643 14.1552C14.7344 14.1652 14.6808 14.1776 14.5945 14.1776H6.86045C6.77417 14.1776 6.72038 14.165 6.69064 14.1551Z" fill="#0062FF"/>
<path d="M10.7235 8.69425C10.7037 8.68333 10.682 8.67642 10.6596 8.67391C10.6371 8.67141 10.6144 8.67335 10.5927 8.67965C10.571 8.68594 10.5508 8.69645 10.5332 8.71058C10.5156 8.7247 10.5009 8.74217 10.4901 8.76197L8.59945 12.2024C8.58856 12.2222 8.58167 12.2439 8.57918 12.2663C8.57668 12.2888 8.57863 12.3115 8.58491 12.3331C8.59119 12.3548 8.60168 12.3751 8.61578 12.3927C8.62988 12.4103 8.64731 12.425 8.66709 12.4359C8.68686 12.4468 8.70858 12.4537 8.73102 12.4562C8.75345 12.4587 8.77616 12.4567 8.79784 12.4504C8.81952 12.4441 8.83975 12.4337 8.85738 12.4196C8.87501 12.4055 8.88969 12.388 8.90058 12.3683L10.7912 8.92783C10.8021 8.90804 10.8091 8.88629 10.8116 8.86383C10.8141 8.84136 10.8121 8.81862 10.8058 8.79691C10.7995 8.77519 10.789 8.75493 10.7749 8.73729C10.7608 8.71965 10.7433 8.70496 10.7235 8.69408V8.69425Z" fill="#0062FF"/>
<path d="M8.23633 13.3174C8.33125 13.3174 8.4082 13.2404 8.4082 13.1455C8.4082 13.0506 8.33125 12.9736 8.23633 12.9736C8.1414 12.9736 8.06445 13.0506 8.06445 13.1455C8.06445 13.2404 8.1414 13.3174 8.23633 13.3174Z" fill="#0062FF"/>
</g>
<defs>
<clipPath id="clip0_472_5167">
<rect width="22" height="22" fill="white" transform="translate(6 6.11133)"/>
</clipPath>
</defs>
</svg>
