<svg width="34" height="35" viewBox="0 0 34 35" fill="none" xmlns="http://www.w3.org/2000/svg">
<circle cx="17" cy="17.1113" r="16.5" fill="white" stroke="#0062FF"/>
<path d="M7.14648 11.5003C7.14648 10.1081 8.2751 8.97949 9.66732 8.97949H24.334C25.7262 8.97949 26.8548 10.1081 26.8548 11.5003V18.8337C26.8548 19.2133 26.547 19.5212 26.1673 19.5212C25.7876 19.5212 25.4798 19.2133 25.4798 18.8337V11.5003C25.4798 10.8675 24.9669 10.3545 24.334 10.3545H9.66732C9.03449 10.3545 8.52148 10.8675 8.52148 11.5003V22.5003C8.52148 23.1332 9.03449 23.6462 9.66732 23.6462H10.584C10.9637 23.6462 11.2715 23.954 11.2715 24.3337C11.2715 24.7133 10.9637 25.0212 10.584 25.0212H9.66732C8.2751 25.0212 7.14648 23.8926 7.14648 22.5003V11.5003Z" fill="#0062FF"/>
<path fill-rule="evenodd" clip-rule="evenodd" d="M12.6465 23.4163C12.6465 23.1864 12.7614 22.9718 12.9526 22.8443L15.7027 21.011C15.8156 20.9357 15.9482 20.8955 16.084 20.8955H26.1673C26.3496 20.8955 26.5245 20.9679 26.6534 21.0969C26.7824 21.2258 26.8548 21.4007 26.8548 21.583V25.2497C26.8548 25.6294 26.547 25.9372 26.1673 25.9372H16.084C15.9482 25.9372 15.8156 25.897 15.7027 25.8217L12.9526 23.9883C12.7614 23.8608 12.6465 23.6462 12.6465 23.4163ZM24.1048 24.5622H25.4798V22.2705H24.1048V24.5622ZM22.7298 24.5622V22.2705H16.2922L14.5734 23.4163L16.2922 24.5622H22.7298Z" fill="#0062FF"/>
</svg>
